<svg width="385" height="510" viewBox="0 0 385 510" fill="none" xmlns="http://www.w3.org/2000/svg">
<path d="M0.000119134 484.194V484.194C10.8776 484.194 19.6622 493.398 19.6621 504.795L19.662 507.539" stroke="black" stroke-width="2"/>
<path d="M33.2095 336.341C33.2095 333.004 33.862 329.458 34.5409 326.254C35.0402 323.898 34.5596 320.878 34.5596 318.468C34.5596 316.316 35.0123 314.034 35.4035 311.901C35.6939 310.317 35.5723 308.65 35.5723 307.044C35.5723 304.941 35.9098 302.905 35.9098 300.831C35.9098 287.546 35.9098 274.171 35.9098 260.955C35.9098 255.721 35.5723 250.514 35.5723 245.225C35.5723 241.487 34.5596 237.84 34.5596 234.254C34.5596 230.892 34.1954 227.218 35.4973 224.147C36.1219 222.674 36.2195 221.028 36.8474 219.546C37.194 218.729 37.5929 216.363 38.2726 216.007" stroke="#EFEADB" stroke-width="2" stroke-linecap="round"/>
<path d="M38.2725 214.237C39.8235 210.782 39.6227 206.931 39.6227 202.991C39.6227 200.922 39.1308 198.895 38.6288 197.053C38.1423 195.267 38.315 193.291 37.9162 191.409C37.5736 189.793 36.7269 187.946 37.5224 186.278C38.1917 184.874 38.7371 183.56 39.4539 182.207C39.9789 181.217 41.3433 179.084 42.3231 178.57C42.8186 178.31 44.0144 178.044 44.3483 177.606C44.8433 176.958 45.9819 177.897 46.3736 177.076" stroke="#EFEADB" stroke-width="2" stroke-linecap="round"/>
<path d="M46.3735 177.075C46.3735 174.695 48.1444 172.081 48.7551 169.84C49.2426 168.05 50.2095 165.244 51.3617 163.902C52.9513 162.05 54.467 160.441 57.0062 160.441C59.4174 160.441 61.7485 159.733 64.2633 159.733" stroke="#EFEADB" stroke-width="2" stroke-linecap="round"/>
<path d="M65.2764 159.733C66.1866 158.885 68.2997 159.044 68.9893 158.14C69.3263 157.699 72.72 156.94 73.3774 156.902C76.1721 156.739 79.1886 155.486 81.9848 155.486C83.4574 155.486 84.7373 154.778 86.2041 154.778C87.723 154.778 89.242 154.778 90.7609 154.778C93.9562 154.778 97.1202 154.424 100.381 154.424" stroke="#EFEADB" stroke-width="2" stroke-linecap="round"/>
<path d="M101.731 155.132C103.194 155.132 104.656 155.132 106.119 155.132C107.686 155.132 109.03 154.51 110.507 154.424C113.679 154.24 116.583 153.717 119.79 153.717C121.252 153.717 122.715 153.717 124.178 153.717C124.884 153.717 127.992 154.424 128.397 154.955C128.882 155.591 132.11 155.132 132.954 155.132C134.834 155.132 136.644 155.486 138.448 155.486C142.142 155.486 145.678 155.84 149.325 155.84C152.464 155.84 155.018 156.597 157.932 157.275C163.089 158.477 168.902 161.894 168.902 167.873C168.902 174.027 159.474 174.598 155.25 174.598C152.319 174.598 149.387 174.598 146.455 174.598C143.271 174.598 140.47 173.536 137.173 173.536C135.766 173.536 134.52 172.828 133.122 172.828C132.324 172.828 129.927 172.696 129.335 172.199C128.449 171.457 126.236 172.29 125.284 171.491C124.634 170.946 121.709 171.29 120.802 171.078C118.216 170.476 115.086 170.351 112.364 170.351C111.005 170.351 104.275 169.617 103.756 170.705" stroke="#EFEADB" stroke-width="2" stroke-linecap="round"/>
<path d="M47.3862 177.783C49.0216 176.412 51.7474 176.184 53.6308 175.306C55.9199 174.239 57.1023 173.182 59.6878 173.182C62.0084 173.182 64.5326 172.474 66.7762 172.474C69.2578 172.474 71.7394 172.474 74.2209 172.474C78.6418 172.474 83.1383 172.718 87.5539 172.474C89.7965 172.351 92.0068 171.413 94.3048 171.413C96.4425 171.413 98.5803 171.413 100.718 171.413" stroke="#EFEADB" stroke-width="2" stroke-linecap="round"/>
<path d="M143.249 174.952C144.46 174.952 145.64 175.66 146.793 175.66C148.374 175.66 149.956 175.66 151.537 175.66C154.093 175.66 157.39 175.246 159.619 176.545C160.644 177.142 162.239 177.548 163.332 177.803C164.425 178.058 165.506 179.399 166.37 180.103C168.443 181.794 169.239 184.134 169.239 186.808C169.239 190.04 167.428 190.497 165.451 192.569C163.847 194.251 160.684 194.418 158.438 194.418C155.672 194.418 152.573 194.772 149.662 194.772C146.951 194.772 144.429 194.064 141.898 194.064" stroke="#EFEADB" stroke-width="2" stroke-linecap="round"/>
<path d="M139.873 193.356C128.948 193.356 118.111 193.71 107.131 193.71C101.572 193.71 95.9208 193.38 90.2542 193.71C85.1185 194.009 78.9327 193.221 73.8833 194.398C71.1959 195.024 68.6642 196.187 65.7635 196.187C63.3026 196.187 60.8625 196.928 58.6751 197.583C53.9693 198.993 48.4125 195.108 45.0234 199.55C44.3956 200.372 43.6234 201.464 42.9231 202.125C41.5853 203.388 42.323 203.861 42.323 205.389C42.323 206.795 42.6606 208.131 42.6606 209.459C42.6606 211.008 43.6227 212.017 43.992 213.372C44.1762 214.048 44.707 215.769 45.0984 216.282C45.7803 217.176 45.1599 219.017 45.7735 219.822C46.229 220.418 46.3298 222.968 46.3736 223.793C46.4419 225.084 46.7111 226.547 46.7111 227.686" stroke="#EFEADB" stroke-width="2" stroke-linecap="round"/>
<path d="M45.6982 246.09C45.6982 243.456 48.7361 240.861 48.7361 238.127C48.7361 237.199 49.2855 235.681 49.6738 234.765C50.0888 233.786 49.7488 231.943 49.7488 230.872" stroke="#EFEADB" stroke-width="2" stroke-linecap="round"/>
<path d="M52.1119 236.888C52.1119 232.662 48.3989 230.127 48.3989 225.917C48.3989 223.756 48.3897 222.358 49.8241 220.687C50.5849 219.8 51.4539 217.777 52.787 217.777" stroke="#EFEADB" stroke-width="2" stroke-linecap="round"/>
<path d="M53.7993 217.069C55.8836 217.069 57.6093 214.816 59.5376 214.591C62.0261 214.301 64.165 213.883 66.7947 213.883C69.1882 213.883 71.1754 214.591 73.5456 214.591C76.0674 214.591 78.3867 213.176 80.8028 213.176C83.5585 213.176 86.2217 212.114 88.9788 212.114C91.3695 212.114 94.1263 212.408 96.3298 211.583C100.222 210.125 106.188 211.889 109.081 214.316C110.485 215.494 112.294 216.314 113.469 217.855C114.471 219.168 114.557 222.992 114.557 224.678C114.557 225.695 112.464 228.743 111.332 229.083C109.197 229.722 107.52 230.164 105.106 230.164C102.617 230.164 100.07 229.81 97.68 229.81C96.4986 229.81 95.3172 229.81 94.1358 229.81C93.3818 229.81 91.0896 229.952 90.4228 230.341C89.3811 230.948 87.9469 230.806 86.9536 231.658C86.0022 232.474 85.4775 233.069 84.8533 234.214C83.8231 236.105 81.4779 236.365 81.4779 238.658" stroke="#EFEADB" stroke-width="2" stroke-linecap="round"/>
<path d="M81.1406 240.074C82.4838 240.25 83.5844 243.624 83.916 244.753C84.435 246.522 84.8536 247.743 84.8536 249.708C84.8536 250.719 85.3995 254.4 84.7786 255.214C83.7602 256.549 82.4106 258.365 81.5532 259.893C80.7496 261.326 79.2548 262.236 78.5153 263.787C78.0241 264.817 76.8157 266.843 76.7526 268.034C76.6695 269.601 75.8312 271.008 75.7399 272.635C75.7087 273.191 75.0961 273.848 75.0649 274.404C75.0189 275.224 75.0649 276.061 75.0649 276.882" stroke="#EFEADB" stroke-width="2" stroke-linecap="round"/>
<path d="M77.4277 257.416C75.1013 257.416 73.0702 259.54 70.6768 259.54C69.5407 259.54 68.3504 260.202 67.2263 260.247C66.018 260.296 64.7979 260.247 63.5884 260.247" stroke="#EFEADB" stroke-width="2" stroke-linecap="round"/>
<path d="M63.9258 260.247C68.1184 260.247 72.4566 255.932 76.0773 254.034C78.5645 252.73 79.4528 249.817 79.4528 247.152" stroke="#EFEADB" stroke-width="2" stroke-linecap="round"/>
<path d="M68.9888 246.798C71.4215 246.515 73.8 242.771 75.0646 240.782" stroke="#EFEADB" stroke-width="2" stroke-linecap="round"/>
<path d="M68.9888 237.95C70.6765 237.95 72.3642 237.95 74.0519 237.95C75.53 237.95 76.5751 237.158 77.7649 236.535" stroke="#EFEADB" stroke-width="2" stroke-linecap="round"/>
<path d="M79.1152 244.675C79.1152 242.882 78.1025 241.656 78.1025 240.074" stroke="#EFEADB" stroke-width="2" stroke-linecap="round"/>
<path d="M105.106 227.687C106.665 226.052 108.819 223.401 108.819 220.962C108.819 218.811 109.188 215.428 106.794 214.591" stroke="#EFEADB" stroke-width="2" stroke-linecap="round"/>
<path d="M107.131 210.698C107.131 207.976 110.507 205.705 110.507 202.735C110.507 201.557 110.937 199.468 109.832 198.743C109.235 198.352 107.706 197.039 107.469 196.541" stroke="#EFEADB" stroke-width="2" stroke-linecap="round"/>
<path d="M115.232 219.9C118.584 219.9 123.124 221.287 124.327 216.872C124.755 215.302 125.021 213.439 125.021 211.76C125.021 210.821 125.071 209.866 125.021 208.929C124.969 207.936 123.902 207.74 123.69 206.962C123.394 205.875 121.811 204.605 120.821 204.308C119.389 203.879 117.97 202.499 116.583 201.771C113.933 200.382 111.725 198.172 109.494 195.833" stroke="#EFEADB" stroke-width="2" stroke-linecap="round"/>
<path d="M97.6802 178.491V178.845" stroke="#EFEADB" stroke-width="2" stroke-linecap="round"/>
<path d="M100.38 179.199V181.323" stroke="#EFEADB" stroke-width="2" stroke-linecap="round"/>
<path d="M102.743 180.261C102.743 180.971 102.472 182.419 103.081 182.738" stroke="#EFEADB" stroke-width="2" stroke-linecap="round"/>
<path d="M104.431 181.322V184.508" stroke="#EFEADB" stroke-width="2" stroke-linecap="round"/>
<path d="M103.081 159.733C102.068 159.733 105.106 159.733 106.119 159.733C107.418 159.733 108.264 158.317 109.494 158.317" stroke="#EFEADB" stroke-width="2" stroke-linecap="round"/>
<path d="M140.548 161.149V163.272" stroke="#EFEADB" stroke-width="2" stroke-linecap="round"/>
<path d="M141.223 184.862V186.277" stroke="#EFEADB" stroke-width="2" stroke-linecap="round"/>
<path d="M164.176 191.586C161.909 191.586 160.256 189.784 158.607 188.401C156.758 186.85 156.141 183.411 158.944 182.758C160.051 182.5 161.722 182.384 162.826 182.384C163.497 182.384 164.182 182.343 164.851 182.384C165.564 182.428 164.952 183.666 165.264 184.075C166.776 186.057 166.568 189.787 164.851 191.586" stroke="#EFEADB" stroke-width="2" stroke-linecap="round"/>
<path d="M155.737 163.272C155.871 164.537 157.35 166.359 158.1 167.343C158.908 168.401 160.273 168.068 161.213 168.857C161.716 169.279 164.667 169.471 165.339 169.27C166.164 169.022 167.836 167.76 167.889 166.812C168.016 164.55 167.231 160.273 164.513 160.441C163.247 160.519 161.734 160.795 160.294 160.795C159.567 160.795 158.826 160.753 158.1 160.795C157.299 160.842 156.69 161.888 156.075 162.211" stroke="#EFEADB" stroke-width="2" stroke-linecap="round"/>
<path d="M118.945 214.945C118.945 213.384 120.633 212.445 120.633 210.875C120.633 210.065 120.97 207.866 120.295 207.513" stroke="#EFEADB" stroke-width="2" stroke-linecap="round"/>
<path d="M37.5977 223.085C37.5977 225.607 40.5936 227.87 40.9543 230.518C41.0938 231.542 42.0715 235.755 41.1419 236.535C40.5879 236.999 40.7942 238.622 40.223 239.287C39.8916 239.673 39.4169 241.174 39.3041 241.706C38.8226 243.978 37.9352 246.006 37.9352 248.371C37.9352 252.912 37.4989 259.605 41.9857 262.096C43.5938 262.988 45.5043 264.275 47.3864 264.494C48.2047 264.59 49.1464 265.3 49.9367 265.537C50.7055 265.767 51.7619 266.137 52.4496 266.618" stroke="#EFEADB" stroke-width="2" stroke-linecap="round"/>
<path d="M54.812 269.449C57.1939 269.449 59.4903 269.803 61.7317 269.803C62.638 269.803 63.5444 269.803 64.4508 269.803C65.4161 269.803 66.3067 269.014 67.1511 268.761C68.7488 268.283 70.5588 267.466 72.0267 266.697C73.0453 266.163 76.3525 266.041 76.7523 265.202" stroke="#EFEADB" stroke-width="2" stroke-linecap="round"/>
<path d="M41.9857 267.68C41.9857 268.659 41.499 270.353 40.8981 271.14C39.9618 272.368 40.298 274.81 40.298 276.351C40.298 278.653 40.6709 280.542 41.3106 282.722C41.8999 284.73 42.9983 287.169 42.9983 289.269C42.9983 293.274 43.4678 297.227 42.9796 301.322C42.6369 304.197 42.3316 307.087 41.967 309.954C41.695 312.093 40.9731 314.405 40.9731 316.521" stroke="#EFEADB" stroke-width="2" stroke-linecap="round"/>
<path d="M74.7275 279.713C74.7275 284.325 75.8362 288.604 76.0777 293.162C76.2142 295.738 77.2974 298.515 77.7467 301.106C78.1563 303.468 78.7781 306.181 78.7781 308.558C78.7781 309.661 79.1087 311.482 79.6219 312.451C80.3217 313.772 80.1282 316.134 80.1282 317.583C80.1282 320.76 80.8033 323.746 80.8033 326.962C80.8033 331.405 81.1409 335.892 81.1409 340.234" stroke="#EFEADB" stroke-width="2" stroke-linecap="round"/>
<path d="M31.184 335.633C31.0835 336.476 29.1587 336.632 29.1587 337.934C29.1587 339.403 30.1576 339.918 30.4901 341.139C31.3084 344.141 32.9796 344.29 35.4032 344.855C39.9752 345.92 46.8807 345.818 51.099 343.852C52.0789 343.395 53.891 343.693 54.9808 343.439C56.2795 343.136 57.6831 343.065 59.0313 343.065C61.5915 343.065 64.1598 342.711 66.7948 342.711C69.2142 342.711 71.3283 342.004 73.7144 342.004C74.9559 342.004 75.6717 341.359 76.7523 341.296C77.8704 341.231 78.7512 340.234 79.7902 340.234" stroke="#EFEADB" stroke-width="2" stroke-linecap="round"/>
<path d="M32.8716 337.403C32.9776 338.292 35.0331 341.056 35.7407 341.65C36.8191 342.554 37.7012 344.182 38.9474 344.835" stroke="#EFEADB" stroke-width="2" stroke-linecap="round"/>
<path d="M27.4709 338.111C27.4709 344.067 27.8084 350.121 27.8084 356.003C27.8084 359.9 28.4835 363.645 28.4835 367.486C28.4835 370.999 28.4835 374.512 28.4835 378.025C28.4835 382.528 27.6274 386.848 27.4709 391.278C27.3478 394.763 25.4456 397.918 25.4456 401.483C25.4456 404.697 24.7418 408.421 24.0204 411.53C22.7894 416.836 22.8558 422.268 22.389 427.653C21.7516 435.004 20.0449 442.177 20.0449 449.596C20.0449 457.796 20.0449 465.995 20.0449 474.194C20.0449 476.389 20.3851 478.41 20.7013 480.565C20.9083 481.976 21.3951 483.785 21.3951 485.166C21.3951 487.517 22.967 489.761 23.0828 492.067C23.1435 493.277 23.8283 494.716 24.1705 495.882C24.675 497.601 25.2984 499.638 25.9707 501.25C26.8012 503.24 27.2825 505.121 28.146 506.932" stroke="#EFEADB" stroke-width="2" stroke-linecap="round"/>
<path d="M80.8032 341.65C80.8032 344.659 82.8285 347.404 82.8285 350.321C82.8285 351.856 83.7592 353.198 83.8411 354.745C83.9155 356.149 84.5162 357.782 84.5162 359.189C84.5162 362.071 84.2163 365.953 85.4538 368.548C86.7051 371.172 88.9043 373.957 88.9043 377.042C88.9043 380.497 89.2418 384.126 89.2418 387.66C89.2418 388.931 88.8466 391.09 89.3168 392.261C89.7068 393.232 89.3783 394.194 89.6544 395.171C89.9295 396.145 90.2544 397.443 90.2544 398.455C90.2544 402.2 90.592 406.369 90.592 410.311C90.592 412.05 90.2101 414.357 90.7608 415.974C91.2418 417.386 91.8634 419.796 91.9422 421.283C92.1141 424.528 93.9674 427.812 93.9674 431.015C93.9674 434.441 95.439 437.832 96.3302 441.102C97.3061 444.684 98.1592 448.37 98.3555 452.074C98.5505 455.754 100.463 459.213 100.718 462.967C100.865 465.118 102.26 467.003 102.406 469.141C102.501 470.534 103.044 471.912 103.081 473.309C103.106 474.251 103.145 475.836 103.587 476.672C104.188 477.805 103.756 480.138 103.756 481.45C103.756 483.479 103.562 485.733 104.262 487.643C104.77 489.027 104.769 491.642 104.769 493.129C104.769 494.781 104.769 496.432 104.769 498.084C104.769 500.798 103.419 503.839 103.419 506.578" stroke="#EFEADB" stroke-width="2" stroke-linecap="round"/>
<path d="M110.844 357.93C110.844 364.68 113.192 371.105 113.545 377.75C113.837 383.273 114.557 388.722 114.557 394.384C114.557 400.88 113.882 407.114 113.882 413.653C113.882 417.586 113.882 421.518 113.882 425.451C113.882 427.298 113.934 429.101 113.62 430.917C113.227 433.18 113.854 435.574 113.47 437.838C112.364 444.361 113.477 451.298 114.632 457.658C115.717 463.632 117.933 469.711 117.933 475.787C117.933 480.86 117.933 485.932 117.933 491.005C117.933 496.685 115.907 502.099 115.907 507.64" stroke="#EFEADB" stroke-width="2" stroke-linecap="round"/>
<path d="M205.694 450.658C201.308 450.658 196.916 450.363 192.605 451.287C189.872 451.874 187.121 452.331 184.429 453.057C179.63 454.351 175.128 457.383 170.065 457.383C164.328 457.383 159.286 458.249 153.713 456.301C151.269 455.447 149.462 453.303 147.299 451.917C144.584 450.177 142.57 448.441 140.361 446.057C138.584 444.139 137.032 441.874 135.485 439.765C133.777 437.437 131.967 435.394 130.685 432.608C128.201 427.214 125.903 421.522 122.846 416.485C121.844 414.835 121.695 412.528 120.802 410.842C120.196 409.697 119.807 407.907 119.096 406.949C117.732 405.11 116.918 400.046 114.895 399.339" stroke="#EFEADB" stroke-width="2" stroke-linecap="round"/>
<path d="M152.025 294.932C152.025 299.734 151.941 304.405 152.962 309.089C153.784 312.857 154.574 316.637 155.475 320.414C157.737 329.901 158.85 339.687 161.645 349.063C162.789 352.901 164.117 356.75 165.695 360.427C167.776 365.275 169.047 370.423 170.927 375.351C172.096 378.414 172.867 381.544 174.302 384.475C175.506 386.932 177.026 389.078 178.015 391.671C179.2 394.776 180.943 397.685 181.41 401.109C181.769 403.744 183.469 406.49 184.616 408.895C185.595 410.947 186.929 412.906 187.992 414.932C188.686 416.255 189.645 417.296 190.242 418.687C190.756 419.885 191.38 421.41 192.042 422.502C193.722 425.27 195.154 427.714 197.237 430.308C199.42 433.026 200.825 436.475 202.656 439.411C204.073 441.683 205.113 444.641 205.957 447.198C206.94 450.176 208.716 453.576 209.088 456.695C209.294 458.422 210.14 460.069 210.438 461.787C210.627 462.878 210.826 464.272 211.113 465.326C211.63 467.223 211.589 469.39 212.445 471.186" stroke="#EFEADB" stroke-width="2" stroke-linecap="round"/>
<path d="M256.663 253.169C256.663 258.183 257.234 263.36 255.5 268.034C252.865 275.139 251.013 282.465 249.049 289.82C248.104 293.361 247.312 296.983 246.03 300.418C244.519 304.466 242.823 308.384 241.305 312.451C240.47 314.687 239.582 317 238.623 319.156C237.829 320.941 237.745 322.849 237.235 324.681C236.477 327.406 236.168 330.35 235.21 332.998C234.129 335.986 232.699 339.073 232.041 342.181C230.872 347.698 227.919 352.694 226.696 358.206C226.261 360.169 225.319 361.965 224.859 363.947C224.4 365.925 223.786 367.951 223.171 369.885C222.655 371.509 222.512 373.249 222.158 374.919C221.798 376.618 221.28 378.766 221.221 380.503C221.162 382.215 220.637 384.026 220.283 385.694C219.98 387.123 220.36 389.16 219.796 390.491C218.617 393.271 218.806 397.011 217.845 399.969C217.114 402.222 217.289 404.759 216.495 407.047C215.904 408.751 215.712 410.616 215.22 412.356C214.65 414.372 214.132 416.706 214.132 418.805" stroke="#EFEADB" stroke-width="2" stroke-linecap="round"/>
<path d="M151.012 261.663C151.012 265.448 152.7 268.767 152.7 272.458C152.7 275.184 154.346 277.883 154.744 280.598C155.199 283.698 156.71 287.669 157.932 290.488C158.392 291.551 158.542 292.597 158.944 293.693C159.316 294.706 159.897 295.886 160.107 296.879C161.445 303.192 164.902 309.01 166.877 315.106C168.622 320.493 171.017 326.303 173.965 331.111C176.483 335.217 176.708 340.812 178.691 345.189C180.345 348.841 182.214 352.414 183.604 356.161C184.683 359.069 185.068 362.156 186.267 365.028C188.981 371.534 191.823 377.904 194.387 384.475C196.284 389.337 198.207 394.195 200.031 399.064C200.92 401.436 202.964 403.698 204.344 405.789C206.043 408.362 207.558 411.167 209.557 413.496C211.078 415.268 212.834 417.143 213.795 419.159" stroke="#EFEADB" stroke-width="2" stroke-linecap="round"/>
<path d="M266.452 445.349C262.897 445.349 259.435 444.996 255.819 444.996C251.246 444.996 246.458 444.87 241.999 443.757C239.89 443.23 236.073 444.137 236.073 441.122C236.073 435.596 238.098 430.28 238.098 424.802C238.098 422.241 239.067 419.933 239.111 417.389C239.191 412.727 240.306 407.92 240.798 403.272C241.711 394.66 241.901 386.024 243.161 377.435C244.152 370.683 245.427 364.127 247.212 357.576C248.591 352.515 248.224 347.125 248.224 341.886C248.224 337.088 248.224 332.291 248.224 327.493C248.224 325.375 249.788 323.186 250.925 321.555C253.713 317.553 257.55 315.067 260.713 311.566C262.358 309.746 264.067 308.05 265.758 306.277C267.778 304.159 271.104 302.574 272.452 299.887C272.918 298.96 273.643 297.545 273.859 296.525C274.063 295.56 271.26 293.603 270.427 292.73C268.804 291.028 267.015 289.691 265.458 287.853C264.263 286.444 262.97 284.306 261.389 283.331C259.368 282.085 259.151 278.413 257.601 276.607C256.827 275.705 254.975 273.538 254.975 272.281" stroke="#EFEADB" stroke-width="2" stroke-linecap="round"/>
<path d="M268.369 446.594C271.502 446.594 278.068 446.906 280.24 444.059C281.149 442.866 283.667 443.024 284.636 441.754C285.467 440.666 287.613 439.89 288.154 438.757" stroke="#EFEADB" stroke-width="2" stroke-linecap="round"/>
<path d="M238.032 472.41C238.032 468.242 241.144 464.988 241.964 461.116C242.68 457.74 245.056 454.95 247.924 453.279C248.946 452.684 250.663 452.318 251.564 451.563C252.417 450.847 253.722 449.867 254.837 449.463C256.163 448.982 258.189 448.494 259.233 447.619C259.889 447.069 260.999 446.079 261.774 445.672" stroke="#EFEADB" stroke-width="2" stroke-linecap="round"/>
<path d="M134.271 468.722C140.743 468.722 147.164 469.183 153.616 469.183C158.167 469.183 162.645 470 167.148 470.105C174.518 470.277 181.884 471.488 189.229 471.488C194.207 471.488 199.112 472.41 204.178 472.41C206.636 472.41 209.095 472.41 211.554 472.41C214.852 472.41 217.855 473.793 221.105 473.793C226.714 473.793 232.189 474.254 237.812 474.254C240.93 474.254 244.412 474.724 247.484 474.229C250.115 473.804 253.619 474.051 256.058 472.974C257.148 472.493 258.436 473.016 259.575 472.513C260.252 472.214 262.334 471.994 263.092 471.949C265.554 471.806 267.927 471.488 270.347 471.488C271.184 471.488 275.608 471.365 276.258 470.797C277.367 469.828 280.577 470.39 281.998 469.644" stroke="#EFEADB" stroke-width="2" stroke-linecap="round"/>
<path d="M131.634 470.105C131.634 473.245 132.513 476.147 132.513 479.325C132.513 482.654 131.194 485.547 131.194 488.776C131.194 491.446 129.939 494.744 129.46 497.509C128.992 500.203 128.116 508.341 128.116 505.602" stroke="#EFEADB" stroke-width="2" stroke-linecap="round"/>
<path d="M131.193 467.339C131.193 462.129 132.072 456.115 130.656 451.102C129.101 445.599 126.677 440.307 125.136 434.813C123.534 429.105 120.336 423.852 117.906 418.474C116.713 415.832 114.926 413.082 114.926 410.176" stroke="#EFEADB" stroke-width="2" stroke-linecap="round"/>
<path d="M283.317 469.644C287.987 469.644 289.927 465.019 292.77 462.038C296.904 457.704 297.722 448.363 299.048 442.65C301.361 432.677 302.663 421.559 302.663 411.328C302.663 406.501 302.538 400.86 303.322 396.089C303.712 393.721 303.982 390.657 303.982 388.252C303.982 387.294 303.557 384.813 304.421 384.36" stroke="#EFEADB" stroke-width="2" stroke-linecap="round"/>
<path d="M319.37 310.6C319.37 318.684 319.37 326.769 319.37 334.853C319.37 340.047 319.809 345.147 319.809 350.348C319.809 354.187 319.37 357.879 319.37 361.668C319.37 364.744 318.93 367.8 318.93 370.76C318.93 373.436 318.051 375.924 318.051 378.597C318.051 386.645 317.023 394.508 316.732 402.441C316.641 404.905 315.826 408.248 315.193 410.636C314.235 414.251 313.732 418.237 313.19 421.931C312.741 424.987 312.39 428.061 311.553 431.023C310.918 433.271 310.255 436.407 310.137 438.757C309.893 443.611 308.818 448.314 308.818 453.279C308.818 457.052 308.378 460.722 308.378 464.573" stroke="#EFEADB" stroke-width="2" stroke-linecap="round"/>
<path d="M300.024 508.368C300.024 504.036 297.369 500.133 296.947 495.921C296.513 491.606 295.298 487.016 294.406 482.809C293.624 479.12 293.869 474.834 293.869 471.027C293.869 468.029 293.429 465.062 293.429 462.268" stroke="#EFEADB" stroke-width="2" stroke-linecap="round"/>
<path d="M328.602 294.926C328.602 297.105 325.082 300.552 323.668 302.199C322.356 303.728 320.249 306.644 320.249 308.756" stroke="#EFEADB" stroke-width="2" stroke-linecap="round"/>
<path d="M325.964 303.224C325.964 305.513 327.664 307.695 328.505 309.678C329.515 312.061 331.348 312.289 333.439 313.263C335.79 314.359 339.241 314.288 341.792 314.288C344.797 314.288 347.801 314.288 350.805 314.288C355.636 314.288 360.32 311.201 364.679 309.678C367.085 308.837 376.834 302.233 371.689 299.536" stroke="#EFEADB" stroke-width="2" stroke-linecap="round"/>
<path d="M371.689 299.536C373.642 299.536 375.072 299.931 376.721 300.919C377.996 301.683 377.675 303.45 378.504 304.146C379.222 304.748 378.724 308.512 378.724 309.447C378.724 312.167 378.945 315.014 378.7 317.72C378.243 322.743 377.845 327.617 377.845 332.728C377.845 338.581 376.965 344.35 376.965 350.143C376.965 355.742 376.526 361.336 376.526 367.021C376.526 372.49 376.965 377.988 376.965 383.412C376.965 385.456 377.087 389.199 378.065 391.044C379.054 392.911 378.075 395.928 378.944 397.933C379.72 399.724 380.043 403.398 380.043 405.335C380.043 407.659 380.922 409.921 380.922 412.25C380.922 416.304 381.802 420.427 381.802 424.569C381.802 429.664 382.681 434.91 382.681 440.14C382.681 444.074 384 448.083 384 452.126C384 455.738 384 459.349 384 462.96C384 466.675 383.252 470.101 383.121 473.691C383.041 475.859 382.164 478.54 381.704 480.708C381.255 482.829 381.227 485.175 380.385 487.162C379.759 488.639 379.25 490.61 379.164 492.233C379.078 493.854 377.931 495.223 377.845 496.843C377.777 498.123 376.941 500.244 376.428 501.453C375.789 502.962 375.446 504.64 374.767 506.063" stroke="#EFEADB" stroke-width="2" stroke-linecap="round"/>
<path d="M150.979 258.507C148.942 258.507 147.447 257.636 145.703 256.56C144.209 255.639 144.723 253.436 142.405 253.436C139.459 253.436 136.43 253.215 133.612 253.871C130.613 254.57 127.523 256.43 124.501 254.358C122.251 252.815 117.302 251.525 117.125 248.365C117.093 247.811 116.496 247.443 116.025 247.443C114.988 247.443 115.705 246.734 115.268 246.162C115.024 245.842 114.589 244.806 114.242 244.702C113.739 244.552 112.615 244.414 112.288 243.985C110.984 242.275 106.888 242.115 105.009 241.219C100.543 239.091 94.7017 237.991 94.7017 231.769" stroke="#EFEADB" stroke-width="2" stroke-linecap="round"/>
<path d="M245.945 229.925C246.069 232.252 246.825 234.208 246.825 236.609C246.825 238.607 246.825 240.605 246.825 242.602C246.825 245.498 245.122 251.395 247.167 253.538C248.85 255.303 255.088 254.591 256.497 252.744C257.612 251.284 260.261 253.373 261.334 253.436C263.517 253.563 265.74 253.436 267.928 253.436C277.672 253.436 286.172 246.01 294.748 242.013C298.787 240.131 301.239 237.565 304.64 234.791C305.571 234.032 307.498 232.689 307.498 231.308C307.498 229.417 307.938 227.442 307.938 225.776" stroke="#EFEADB" stroke-width="2" stroke-linecap="round"/>
<path d="M171.643 268.649C171.643 270.251 175.012 274.057 176.259 275.103C178.184 276.717 178.839 280.257 179.898 282.479C180.995 284.779 182.574 287.152 183.098 289.624C183.627 292.117 185.712 295.288 185.712 297.692" stroke="#EFEADB" stroke-width="2" stroke-linecap="round"/>
<path d="M224.842 295.848C224.842 294.068 225.853 290.56 226.942 289.291C228.463 287.52 228.042 283.733 229.141 281.557C230.014 279.827 231.756 278.251 233.098 276.844C234.668 275.198 235.74 272.072 236.713 270.032" stroke="#EFEADB" stroke-width="2" stroke-linecap="round"/>
<path d="M211.212 404.643V407.87" stroke="#EFEADB" stroke-width="2" stroke-linecap="round"/>
<path d="M189.229 320.742C189.789 320.815 190.763 321.653 190.988 322.125" stroke="#EFEADB" stroke-width="2" stroke-linecap="round"/>
<path d="M329.125 309.16C329.125 306.198 330.439 303.52 331.15 300.703C331.726 298.424 331.788 296.328 332.129 294.004C332.745 289.808 333.009 285.903 333.009 281.598C333.009 275.879 333.009 270.16 333.009 264.442C333.009 262.068 333.082 258.574 332.113 256.542" stroke="#EFEADB" stroke-width="2" stroke-linecap="round"/>
<path d="M339.282 258.734C337.716 258.734 336.014 256.97 334.503 256.472C333.698 256.207 332.933 255.7 332.246 255.289C330.455 254.216 327.896 252.266 326.753 250.469C324.967 247.66 325.243 244.621 325.243 241.264C325.243 239.454 324.99 238.047 324.629 236.34C324.283 234.709 323.74 233.801 324.065 232.269C324.681 229.362 328.219 227.9 329.723 225.535" stroke="#EFEADB" stroke-width="2" stroke-linecap="round"/>
<path d="M336.294 227.727C336.294 228.33 336.756 228.912 337.041 229.45C337.288 229.915 336.96 230.854 337.34 231.172C338.037 231.757 337.492 233.815 337.854 234.618C338.896 236.924 340.42 238.376 342.866 238.376" stroke="#EFEADB" stroke-width="2" stroke-linecap="round"/>
<path d="M331.515 239.002C331.515 240.866 333.29 242.102 334.054 243.544C334.531 244.444 335.378 245.876 336.145 246.519C338.249 248.284 340.662 248.712 343.314 248.712C345.576 248.712 348.867 249.291 350.931 248.329C352.522 247.588 356.708 247.246 357.503 245.58" stroke="#EFEADB" stroke-width="2" stroke-linecap="round"/>
<path d="M335.996 240.568C337.58 242.23 340.005 244.655 342.103 245.284C342.98 245.547 343.829 246.516 344.659 246.902C345.894 247.478 347.145 247.823 348.243 248.399" stroke="#EFEADB" stroke-width="2" stroke-linecap="round"/>
<path d="M370.646 299.764C370.646 297.534 370.625 295.397 370.364 293.204C370.142 291.342 369.75 289.524 369.75 287.618C369.75 285.697 369.374 283.531 369.169 281.598C368.971 279.731 369.314 277.812 369.136 275.943C368.703 271.399 368.256 266.923 368.256 262.336C368.256 258.831 368.555 255.397 368.555 251.913C368.555 250.977 368.737 250.212 369.003 249.321C369.445 247.84 369.261 246.211 369.883 244.814C370.404 243.642 370.365 241.654 370.646 240.36C371.05 238.498 371.789 236.522 371.841 234.618C371.944 230.848 373.334 227.124 373.334 223.342C373.334 218.227 373.334 202.88 373.334 207.995" stroke="#EFEADB" stroke-width="2" stroke-linecap="round"/>
<path d="M373.036 205.49C373.036 204.052 373.633 202.921 373.633 201.575C373.633 200.3 373.911 198.128 374.247 196.894C374.552 195.774 374.802 194.154 374.297 192.962C373.938 192.115 373.803 189.919 373.036 189.516" stroke="#EFEADB" stroke-width="2" stroke-linecap="round"/>
<path d="M373.036 189.516C373.169 187.012 374.989 184.453 375.127 182C375.205 180.601 375.127 179.172 375.127 177.771C375.127 176.45 374.855 175.758 374.546 174.622C374.237 173.49 372.009 171.065 370.812 170.707C370.365 170.573 368.745 169.443 368.323 169.089C367.742 168.602 366.462 168.213 366.166 167.592" stroke="#EFEADB" stroke-width="2" stroke-linecap="round"/>
<path d="M364.672 166.339C364.672 162.223 362.888 159.76 361.087 156.456C360.327 155.061 358.024 154.833 356.607 154.751C354.827 154.647 353.013 154.751 351.23 154.751" stroke="#EFEADB" stroke-width="2" stroke-linecap="round"/>
<path d="M297.851 162.29C293.239 162.29 288.626 162.29 284.014 162.29C282.252 162.29 280.55 162.535 278.808 162.535C277.373 162.535 276.006 163.025 274.602 163.025C273.045 163.025 271.608 163.515 270.046 163.515C268.321 163.515 266.571 163.586 264.919 164.127C263.39 164.628 261.451 164.008 259.999 164.685C258.955 165.172 257.461 164.495 256.494 164.495" stroke="#EFEADB" stroke-width="2" stroke-linecap="round"/>
<path d="M255.326 164.005C254.704 163.271 253.574 162.359 253.456 161.31C253.405 160.85 252.704 158.13 252.405 157.88C252.053 157.584 252.167 154.832 252.301 154.341C252.527 153.511 254.026 152.519 254.573 151.945C256.468 149.959 259.412 149.645 261.842 148.937C264.313 148.218 266.86 148.214 269.345 147.345" stroke="#EFEADB" stroke-width="2" stroke-linecap="round"/>
<path d="M269.345 147.345C270.243 147.345 271.005 146.865 271.811 146.624C272.507 146.415 274.167 146.296 274.485 145.63" stroke="#EFEADB" stroke-width="2" stroke-linecap="round"/>
<path d="M274.485 145.63C276.937 145.63 279.44 145.875 281.833 145.875C282.914 145.875 284.292 146.108 285.35 145.861C286.711 145.544 287.902 145.14 289.335 145.14C290.566 145.14 291.745 144.475 292.944 144.405C293.824 144.354 294.683 143.948 295.566 143.915C296.095 143.895 296.789 144.071 297.202 143.724C297.346 143.603 298.578 143.437 298.786 143.425C299.421 143.388 299.982 143.18 300.603 143.18C301.8 143.18 303.03 142.935 304.16 142.935" stroke="#EFEADB" stroke-width="2" stroke-linecap="round"/>
<path d="M304.861 143.18C307.587 143.18 310.313 143.18 313.039 143.18C314.272 143.18 315.564 143.599 316.777 143.67C317.42 143.707 317.803 143.977 318.413 144.16C318.8 144.276 319.982 144.496 320.23 144.704C321.004 145.353 322.204 145.164 323.086 145.575C324.033 146.017 325.18 146.003 326.124 146.419C326.961 146.789 328.568 146.504 329.213 147.045C329.542 147.322 331.74 147.345 332.199 147.345" stroke="#EFEADB" stroke-width="2" stroke-linecap="round"/>
<path d="M358.135 154.695C355.861 154.695 352.977 152.779 351.008 151.632C349.283 150.627 346.713 150.847 345.232 149.604C344.743 149.194 343.241 149.06 342.597 149.06C341.827 149.06 340.333 149.029 339.572 148.801C338.101 148.36 336.14 148.308 334.769 147.59" stroke="#EFEADB" stroke-width="2" stroke-linecap="round"/>
<path d="M307.197 181.644C303.52 181.644 299.842 181.644 296.164 181.644C294.545 181.644 292.927 181.644 291.309 181.644C289.892 181.644 288.376 182.343 286.973 182.611C285.813 182.832 284.686 182.869 283.481 182.869C282.171 182.869 280.754 183.359 279.444 183.359C277.079 183.359 274.72 183.604 272.266 183.604C269.462 183.604 266.658 183.604 263.854 183.604C261.215 183.604 258.687 183.989 256.079 184.094C254.707 184.149 253.258 184.339 251.821 184.339C251.192 184.339 250.465 184.443 249.848 184.325C249.296 184.22 248.877 183.633 248.42 183.359C246.328 182.105 244.578 180.303 244.578 177.724C244.578 176.514 244.749 175.404 244.811 174.294C244.882 173.031 246.19 172.265 246.732 171.354C248.027 169.183 249.731 168.414 252.184 168.414C257.79 168.414 263.132 166.699 268.748 166.699C271.324 166.699 273.592 165.964 276.121 165.964C277.385 165.964 278.709 165.229 279.977 165.229C280.946 165.229 282.709 165.344 283.598 164.93C285.713 163.945 288.165 164.159 290.27 163.528C290.81 163.367 291.488 163.703 292.01 163.46C292.451 163.255 293.283 163.025 293.762 163.025C294.913 163.025 296.055 162.535 297.15 162.535" stroke="#EFEADB" stroke-width="2" stroke-linecap="round"/>
<path d="M347.386 163.27C338.951 163.27 330.532 163.27 322.151 163.27C319.932 163.27 317.867 163.047 315.726 162.548C314.108 162.171 312.014 162.535 310.352 162.535C307.114 162.535 303.732 162.29 300.421 162.29" stroke="#EFEADB" stroke-width="2" stroke-linecap="round"/>
<path d="M352.527 184.829C350.145 184.829 347.729 184.584 345.413 184.584C344.925 184.584 344.63 184.292 344.167 184.149C343.639 183.985 343.058 184.21 342.531 184.04C341.643 183.753 340.381 183.359 339.455 183.359C338.365 183.359 337.263 183.247 336.223 182.924C335.24 182.618 334.134 182.825 333.146 182.502C332.328 182.234 331.367 182.169 330.511 182.134C329.993 182.113 328.563 182.031 328.11 181.767C327.447 181.381 326.378 181.727 325.643 181.631C324.8 181.52 323.372 181.315 322.619 180.964C321.459 180.423 318.994 180.909 317.712 180.909C316.24 180.909 314.791 180.664 313.272 180.664C311.994 180.664 310.711 181.154 309.3 181.154" stroke="#EFEADB" stroke-width="2" stroke-linecap="round"/>
<path d="M349.022 203.204C346.667 203.204 343.859 203.634 341.597 202.904C340.014 202.394 337.935 202.224 336.287 202.224C334.472 202.224 332.717 201.734 330.926 201.734C329.17 201.734 327.413 201.734 325.656 201.734C322.163 201.734 318.802 200.754 315.258 200.754C314.552 200.754 313.671 200.593 313.039 200.944C312.718 201.122 312.25 201.935 311.922 202.278C310.891 203.359 309.658 204.034 308.729 205.286C308.251 205.931 307.742 206.519 307.197 207.124C306.839 207.521 306.15 208.68 305.665 208.825C304.432 209.194 304.383 211.015 303.874 212.023C303.309 213.143 302.33 214.892 303.277 216.134C304.101 217.214 304.339 218.828 305.198 219.986C305.796 220.792 306.492 222.259 307.535 222.572C308.834 222.961 310.023 224.273 311.403 224.273C312.766 224.273 314.439 224.398 315.375 223.171C315.691 222.756 316.339 222.419 316.725 222.014C317.105 221.616 317.327 220.8 317.712 220.598" stroke="#EFEADB" stroke-width="2" stroke-linecap="round"/>
<path d="M315.375 220.598C313.537 220.598 311.19 221.834 309.3 220.843" stroke="#EFEADB" stroke-width="2" stroke-linecap="round"/>
<path d="M324.254 231.133C323.551 231.041 323.072 230.012 322.489 229.663C321.695 229.187 320.853 228.574 320.282 227.826C319.353 226.607 317.702 224.976 317.245 223.538" stroke="#EFEADB" stroke-width="2" stroke-linecap="round"/>
<path d="M318.88 220.843C321.931 220.843 325.013 220.915 327.993 221.088C328.994 221.146 330.186 222.043 331.134 222.327C332.295 222.674 333.631 223.552 334.769 224.083C335.831 224.577 337.059 224.497 338.157 225.008C339.257 225.521 340.449 226.129 341.363 226.914C343.32 228.592 345.694 230.051 348.087 230.888" stroke="#EFEADB" stroke-width="2" stroke-linecap="round"/>
<path d="M366.779 225.988C366.779 224.239 367.62 223.034 368.298 221.469C368.793 220.328 369.113 218.889 369.7 217.781C370.306 216.638 370.051 215.005 370.051 213.738C370.051 213.167 370.051 212.595 370.051 212.023C370.051 211.407 369.615 210.901 369.583 210.308C369.486 208.471 367.372 206.981 365.975 206.144C365.759 206.015 365.591 205.441 365.326 205.218C364.9 204.861 364.336 205.676 363.976 205.844C362.991 206.303 362.02 206.389 360.938 206.389" stroke="#EFEADB" stroke-width="2" stroke-linecap="round"/>
<path d="M370.051 207.859C370.051 205.587 372.198 204.043 372.855 201.979" stroke="#EFEADB" stroke-width="2" stroke-linecap="round"/>
<path d="M368.882 188.749C367.16 188.749 365.698 188.014 363.976 188.014" stroke="#EFEADB" stroke-width="2" stroke-linecap="round"/>
<path d="M364.443 169.639C363.244 169.5 361.883 167.93 360.821 167.312C359.83 166.735 358.713 166.085 357.667 165.719" stroke="#EFEADB" stroke-width="2" stroke-linecap="round"/>
<path d="M316.31 154.45C316.31 153.742 316.298 153.034 316.31 152.326C316.325 151.359 316.777 150.47 316.777 149.55" stroke="#EFEADB" stroke-width="2" stroke-linecap="round"/>
<path d="M307.197 171.354H310.235" stroke="#EFEADB" stroke-width="2" stroke-linecap="round"/>
<path d="M271.916 173.314V174.539" stroke="#EFEADB" stroke-width="2" stroke-linecap="round"/>
<path d="M248.55 181.399C249.561 181.399 251.902 181.772 252.704 181.1C253.239 180.65 254.745 179.588 255.442 179.426C256.73 179.126 257.195 177.255 257.195 176.132C257.195 175.444 257.324 174.597 257.182 173.927C257.033 173.222 256.015 173.227 255.559 173.015C254.468 172.506 253.024 172.334 251.821 172.334C251.12 172.334 250.419 172.334 249.718 172.334C248.857 172.334 248.303 172.074 248.069 172.933C247.993 173.214 247.457 174.378 247.265 174.539C246.883 174.859 247.237 176.14 247.135 176.622C246.958 177.454 246.924 177.822 247.135 178.595C247.309 179.236 247.849 179.77 247.849 180.419" stroke="#EFEADB" stroke-width="2" stroke-linecap="round"/>
<path d="M254.157 153.715C254.157 155.442 254.781 157.471 256.143 158.615C257.511 159.762 260.165 158.84 261.634 158.07C263.183 157.258 264.106 155.681 265.139 154.327C266.245 152.878 265.606 150.997 265.606 149.305" stroke="#EFEADB" stroke-width="2" stroke-linecap="round"/>
<path d="M291.776 213.739C292.097 214.075 293.016 215.174 293.191 214.351C293.332 213.687 293.638 212.883 293.931 212.269C294.551 210.968 294.346 209.341 294.346 207.859C294.346 207.318 293.645 206.049 293.645 207.001C293.645 207.48 293.4 208.915 293.126 209.274C292.397 210.229 291.309 211.462 291.309 212.759" stroke="#EFEADB" stroke-width="2" stroke-linecap="round"/>
<path d="M292.01 209.573C292.01 206.87 293.58 203.971 294.58 201.611C295.474 199.503 296.672 197.496 297.981 195.731C300.072 192.912 302.2 190.069 304.627 187.524C306.011 186.073 306.951 184.021 308.599 182.869" stroke="#EFEADB" stroke-width="2" stroke-linecap="round"/>
<path d="M292.944 215.453C293.647 215.545 294.192 216.475 294.917 216.692C295.785 216.952 296.393 217.168 297.384 217.168C298.399 217.168 298.577 216.656 299.357 216.188C300.348 215.595 300.533 214.878 301.174 214.038C302.063 212.873 302.258 210.969 303.407 209.764C304.49 208.629 306.11 207.571 307.431 206.879" stroke="#EFEADB" stroke-width="2" stroke-linecap="round"/>
<path d="M304.16 189.239C304.16 190.414 304.353 191.505 304.679 192.614C304.863 193.242 305.268 194.843 305.795 195.119" stroke="#EFEADB" stroke-width="2" stroke-linecap="round"/>
<path d="M297.851 206.634C298.069 206.659 298.144 206.757 298.318 206.879" stroke="#EFEADB" stroke-width="2" stroke-linecap="round"/>
<path d="M309.534 189.974C309.534 191.64 310.058 195.71 311.871 196.344" stroke="#EFEADB" stroke-width="2" stroke-linecap="round"/>
<path d="M366.793 305.862C366.793 300.174 364.938 294.758 364.938 289.129C364.938 284.838 365.309 280.497 365.309 276.286" stroke="#EFEADB" stroke-width="2" stroke-linecap="round"/>
<path d="M179.042 201.848C179.147 202.723 180.509 203.962 180.869 204.904C181.302 206.041 181.648 207.704 182.344 208.642C183.649 210.401 184.036 213.073 186.453 213.797C187.276 214.044 188.632 215.526 189.315 216.099C190.258 216.89 191.662 217.621 192.879 218.013C195.612 218.895 198.264 219.744 201.167 219.744C206.568 219.744 212.186 220.469 217.129 217.59C218.678 216.688 220.686 215.37 221.958 214.037C223.279 212.651 225.505 209.786 225.505 207.813" stroke="#EFEADB" stroke-width="2" stroke-linecap="round"/>
<path d="M179.535 201.691C180.132 201.691 181.348 202.06 181.811 202.448C182.01 202.615 182.921 202.974 183.157 203.001C183.535 203.045 184.184 203.261 184.531 203.423C185.398 203.827 186.414 203.828 187.279 204.282C188.099 204.711 189.201 204.456 189.964 204.9C190.736 205.35 191.993 205.377 192.83 205.627C193.688 205.885 194.643 206.013 195.584 206.013C196.499 206.013 197.524 206.668 198.457 206.668C199.268 206.668 200.166 206.799 201.017 206.799C202.829 206.799 204.553 207.061 206.388 207.061C207.336 207.061 208.284 207.061 209.233 207.061C209.651 207.061 210.128 207.137 210.509 206.959C210.849 206.801 211.334 206.537 211.696 206.537C212.401 206.537 213.313 206.315 213.944 205.948C214.288 205.748 214.863 205.702 215.256 205.555C215.672 205.399 216.141 205.072 216.567 204.973C217.453 204.766 218.334 204.558 219.183 204.303C219.568 204.188 219.745 203.918 220.189 203.918C220.571 203.918 220.947 203.787 221.375 203.787" stroke="#EFEADB" stroke-width="2" stroke-linecap="round"/>
<path d="M180.035 200.382C180.547 199.952 181.242 199.771 181.721 199.269C182.169 198.799 182.654 198.289 183.22 198.025C183.927 197.695 185.383 196.424 185.683 195.638C186.121 194.489 187.403 193.789 188.097 192.852C189.021 191.607 190.657 190.78 191.47 189.44C191.744 188.988 192.124 188.673 192.399 188.232C192.709 187.736 193.346 187.513 193.621 187.024C194.079 186.207 195.661 185.946 196.521 185.846C197.66 185.713 198.765 185.584 199.949 185.584C200.889 185.584 201.975 185.587 202.835 185.329C203.089 185.253 203.391 185.403 203.64 185.293C203.908 185.174 204.217 185.06 204.514 185.06C204.95 185.06 205.62 185.083 206.013 184.9C206.86 184.505 208.385 184.798 209.323 184.798C210.179 184.798 211.219 185.187 212.008 185.555C212.972 186.004 214.138 186.087 214.978 186.792C215.73 187.422 216.747 187.791 217.566 188.268C218.385 188.746 219.257 189.518 219.939 190.233C220.674 191.003 221.303 191.867 222.028 192.626C222.495 193.117 223.322 193.725 223.623 194.358" stroke="#EFEADB" stroke-width="2" stroke-linecap="round"/>
<path d="M178.661 199.858C178.661 199.1 178.967 198.244 179.153 197.559C179.325 196.928 179.154 196.253 179.292 195.602C179.608 194.112 180.14 192.667 180.881 191.346C181.249 190.689 181.828 190.12 182.345 189.578C183.114 188.772 183.636 187.7 184.406 186.893C185.11 186.155 185.841 185.396 186.467 184.594C186.908 184.029 187.218 183.421 187.716 182.899C188.097 182.499 188.41 182.182 188.715 181.721C189.185 181.009 189.885 180.307 190.554 179.822C191.295 179.284 191.831 178.257 192.649 177.828C193.876 177.185 194.963 176.212 196.209 175.631C196.85 175.332 197.306 174.758 198.02 174.714C198.619 174.677 199.088 174.191 199.768 174.191C200.433 174.191 200.905 174.679 201.517 174.714C202.163 174.752 202.835 174.845 203.515 174.845C206.051 174.845 208.469 173.167 211.009 174.351C212.139 174.877 213.263 175.605 214.443 176.155C215.906 176.837 216.949 178.344 218.19 179.356C218.761 179.821 219.395 180.171 219.876 180.738C220.352 181.299 220.857 181.767 221.375 182.31C222.243 183.219 223.377 184.348 223.873 185.518C224.159 186.192 224.75 186.562 225.219 187.053C225.468 187.314 225.736 187.553 225.996 187.81C226.236 188.047 226.299 188.305 226.524 188.567C226.908 189.015 227.008 189.684 227.398 190.138C227.659 190.442 228.244 191.045 228.244 191.477" stroke="#EFEADB" stroke-width="2" stroke-linecap="round"/>
<path d="M188.777 192.917C190.031 192.917 191.189 193.31 192.399 193.31C193.73 193.31 194.994 193.179 196.334 193.179C197.874 193.179 199.414 193.179 200.955 193.179C201.6 193.179 202.245 193.179 202.891 193.179C203.526 193.179 204.059 192.786 204.639 192.786C205.151 192.786 206.128 192.982 206.575 192.721C207.049 192.445 207.442 192.917 207.886 192.917C208.22 192.917 208.531 193.048 208.886 193.048C209.632 193.048 210.315 193.179 211.071 193.179C211.867 193.179 212.685 193.048 213.444 193.048C213.594 193.048 213.985 192.857 214.104 192.757C214.323 192.573 214.721 192.655 215.006 192.655C215.734 192.655 216.463 192.655 217.191 192.655C217.837 192.655 218.482 192.655 219.127 192.655C219.63 192.655 220.254 192.305 220.751 192.132" stroke="#EFEADB" stroke-width="2" stroke-linecap="round"/>
<path d="M204.639 189.382V192.263" stroke="#EFEADB" stroke-width="2" stroke-linecap="round"/>
<path d="M195.147 192.394C195.147 192.14 195.198 191.97 195.272 191.739" stroke="#EFEADB" stroke-width="2" stroke-linecap="round"/>
<path d="M214.131 191.477V192.525" stroke="#EFEADB" stroke-width="2" stroke-linecap="round"/>
<path d="M188.652 201.823C189.363 201.823 189.71 202.659 190.401 202.739C190.924 202.8 191.408 203.242 191.927 203.263C192.509 203.286 193.085 203.625 193.648 203.656C194.325 203.693 194.968 203.787 195.647 203.787C196.695 203.787 197.679 204.049 198.769 204.049C199.352 204.049 199.905 204.311 200.517 204.311C201.225 204.311 201.933 204.311 202.641 204.311C203.869 204.311 205.097 204.311 206.325 204.311C207.611 204.311 208.815 203.918 210.072 203.918C211.149 203.918 212.285 203.001 213.319 203.001C214.234 203.001 215.11 202.084 216.005 202.084" stroke="#EFEADB" stroke-width="2" stroke-linecap="round"/>
<path d="M188.402 200.775C188.451 200.316 189.111 199.368 189.464 199.072C189.916 198.693 190.41 198.2 190.72 197.69C191.097 197.068 191.51 196.439 192.024 195.929C192.561 195.398 193.28 195.182 193.898 194.751" stroke="#EFEADB" stroke-width="2" stroke-linecap="round"/>
<path d="M216.504 201.822C216.852 201.822 217.603 201.614 217.753 201.299" stroke="#EFEADB" stroke-width="2" stroke-linecap="round"/>
<path d="M217.753 201.299C217.753 200.428 216.875 199.53 216.532 198.81C216.17 198.051 215.81 197.323 215.311 196.65C214.856 196.036 214.168 195.574 213.569 195.085C213.14 194.736 212.584 194.07 212.133 193.834" stroke="#EFEADB" stroke-width="2" stroke-linecap="round"/>
<path d="M196.771 198.025C196.771 198.35 196.855 198.419 197.021 198.679" stroke="#EFEADB" stroke-width="2" stroke-linecap="round"/>
<path d="M193.555 163.424C191.181 163.424 189.111 163.368 186.869 162.697C185.21 162.2 184.345 159.825 183.287 158.716C182.854 158.261 182.69 156.411 182.657 155.806C182.598 154.766 182.731 153.387 183.338 152.592C183.878 151.885 184.374 150.803 184.813 149.974C185.111 149.412 185.308 149.177 185.608 148.783C185.899 148.402 186.315 148.133 186.516 147.712" stroke="#EFEADB" stroke-width="2" stroke-linecap="round"/>
<path d="M189.24 147.95C189.129 147.016 187.477 145.382 188.383 144.194C189.189 143.137 189.24 141.24 189.922 139.988C190.64 138.671 191.409 137.421 191.725 135.928C191.946 134.889 192.397 132.803 193.05 131.947C193.445 131.428 193.373 130.533 193.668 129.976C193.892 129.554 194.235 128.418 194.235 127.953C194.235 126.641 195.144 125.353 195.144 124.025C195.144 123.401 195.565 122.814 195.598 122.239C195.643 121.423 195.647 120.755 195.812 119.978C196.07 118.762 196.052 116.728 196.052 115.574" stroke="#EFEADB" stroke-width="2" stroke-linecap="round"/>
<path d="M192.873 158.663C192.139 158.663 190.193 157.082 191.007 156.229C191.307 155.914 192.037 155.395 192.419 155.145C192.855 154.859 193.203 153.699 193.782 153.663C195.157 153.579 196.432 154.881 197.641 155.515C198.941 156.197 199.685 157.127 199.685 158.663" stroke="#EFEADB" stroke-width="2" stroke-linecap="round"/>
<path d="M215.123 157.949C215.645 157.88 215.752 157.106 216.145 156.877C216.791 156.501 216.388 155.724 215.918 155.33C215.532 155.006 215.454 154.355 215.073 153.955C214.558 153.415 214.266 153.425 213.534 153.425C212.195 153.425 211.851 152.417 210.81 153.783C210.497 154.192 210.082 154.533 209.725 154.907C209.37 155.279 209.347 156.097 208.993 156.282" stroke="#EFEADB" stroke-width="2" stroke-linecap="round"/>
<path d="M212.399 162.472C214.582 162.974 217.387 164.054 219.261 162.287C220.919 160.722 221.481 159.32 221.481 156.996C221.481 154.922 222.169 152.276 220.749 150.622C219.861 149.587 219.282 146.284 217.394 146.284" stroke="#EFEADB" stroke-width="2" stroke-linecap="round"/>
<path d="M214.215 146.76C214.719 146.166 216.358 143.701 215.464 142.951C214.918 142.493 214.352 140.442 214.203 139.737C213.701 137.372 211.264 135.455 211.264 132.952" stroke="#EFEADB" stroke-width="2" stroke-linecap="round"/>
<path d="M201.047 147.236C201.047 146.328 200.999 145.481 201.274 144.617" stroke="#EFEADB" stroke-width="2" stroke-linecap="round"/>
<path d="M170.515 223.196C170.515 220.29 170.739 217.321 169.833 214.578C169.58 213.812 169.397 213.027 169.134 212.253C168.915 211.609 168.413 210.559 168.366 209.929C168.25 208.343 167.139 207.129 167.139 205.494" stroke="#EFEADB" stroke-width="2" stroke-linecap="round"/>
<path d="M159.158 229.633C156.968 227.051 155.036 223.888 153.632 220.943" stroke="#EFEADB" stroke-width="2" stroke-linecap="round"/>
<path d="M175.119 245.082C176.442 246.315 178.698 247.144 180.337 247.907C181.87 248.622 183.402 249.174 184.942 249.981C188.023 251.597 192.126 253.128 195.685 253.128C197.592 253.128 199.537 253.45 201.517 253.45C202.597 253.45 203.677 253.45 204.758 253.45C205.939 253.45 206.873 252.867 207.964 252.807C209.206 252.738 210.28 252.087 211.476 251.859C212.116 251.737 213.862 251.85 214.341 251.448C215.549 250.435 218.124 250.539 219.628 249.838C223.646 247.966 228.631 246.975 232.043 243.795C234.173 241.809 236.942 240.445 238.966 238.323C240.766 236.436 242.402 234.509 244.184 232.53C246.045 230.464 247.645 227.794 249.096 225.378C249.798 224.208 250.201 222.906 251.091 221.766C251.717 220.963 252.556 220.106 253.018 219.191C253.761 217.719 254.428 214.543 255.849 213.612C256.658 213.082 257.997 210.364 257.997 209.356" stroke="#EFEADB" stroke-width="2" stroke-linecap="round"/>
<path d="M184.942 234.461C186.455 234.659 188.119 236.07 189.853 236.07" stroke="#EFEADB" stroke-width="2" stroke-linecap="round"/>
<path d="M219.935 237.358C221.836 237.136 222.595 234.193 223.925 233.495" stroke="#EFEADB" stroke-width="2" stroke-linecap="round"/>
<path d="M176.626 133.281C177.269 133.281 178.195 132.21 178.828 131.859C179.699 131.375 180.456 130.65 181.318 130.134C182.703 129.304 184.712 127.913 185.632 126.52C186.271 125.552 187.417 124.858 187.989 123.839C188.228 123.413 188.564 123.03 188.79 122.58C188.988 122.185 189.214 121.38 189.534 121.111C189.981 120.736 190.491 119.25 190.735 118.686C191.264 117.466 191.831 116.3 192.236 115.025" stroke="#EFEADB" stroke-width="2" stroke-linecap="round"/>
<path d="M180.429 122.789C181.842 122.789 182.906 121.53 184.232 121.53" stroke="#EFEADB" stroke-width="2" stroke-linecap="round"/>
<path d="M181.135 75.7463C177.459 75.3608 173.635 69.7846 171.614 66.8958C168.354 62.2345 167.094 56.0764 167.094 50.4533C167.094 47.5873 168.805 44.5423 170.154 42.1482C172.051 38.7831 173.868 36.0815 176.535 33.3817C177.559 32.3447 178.784 31.6209 180.075 31.0118C181.659 30.2646 182.938 29.087 184.535 28.3692C186.513 27.4807 188.299 26.2929 190.496 26.2929" stroke="#EFEADB" stroke-width="2" stroke-linecap="round"/>
<path d="M181.855 65.5536C183.61 65.1448 184.954 61.0038 185.816 59.5973C187.353 57.09 188.421 53.4767 188.776 50.5372C189.481 44.6989 191.145 39.1294 191.216 33.1719C191.256 29.8733 191.216 26.5718 191.216 23.2729" stroke="#EFEADB" stroke-width="2" stroke-linecap="round"/>
<path d="M184.736 73.4812C187.535 73.4812 190.1 71.3027 192.297 69.6223C194.792 67.713 197.08 65.4896 199.497 63.4983C203.645 60.0814 205.639 54.0843 208.218 49.4047C209.688 46.7367 210.497 43.7713 211.738 41.0157C212.708 38.8624 213.179 36.5919 213.179 34.2206C213.179 32.7292 213.539 31.3446 213.539 29.8792C213.539 28.7185 213.179 27.8889 213.179 26.6704" stroke="#EFEADB" stroke-width="2" stroke-linecap="round"/>
<path d="M201.657 85.5615C202.045 83.7328 205.942 81.6467 207.338 80.6539C209.733 78.9496 212.184 77.1988 214.618 75.5576C216.479 74.3035 218.92 71.2273 220.179 69.3077C221.857 66.7482 223.821 63.4497 224.619 60.4363C225.38 57.5659 226.5 54.2521 226.5 51.2923C226.5 50.0543 226.86 48.8815 226.86 47.6221C226.86 46.1976 226.585 44.4821 226.88 43.092C227.382 40.7225 227.951 38.1468 228.28 35.7307C228.425 34.6682 229.324 33.7684 229.38 32.7106C229.409 32.1699 230.1 31.0715 230.1 31.2006" stroke="#EFEADB" stroke-width="2" stroke-linecap="round"/>
<path d="M194.816 74.2362C198.052 74.2362 200.41 73.5208 202.737 71.2162C205.626 68.3556 208.671 65.3312 210.278 61.401C210.848 60.006 211.551 58.5643 212.178 57.2484C213.233 55.0371 213.62 52.5042 214.698 50.2436C216.201 47.0917 217.76 43.3982 218.239 39.8831C218.97 34.5187 219.807 28.8812 215.698 24.5732C213.99 22.7815 212.129 20.2811 210.138 18.9525C208.343 17.7549 205.557 15.7227 203.457 15.7227" stroke="#EFEADB" stroke-width="2" stroke-linecap="round"/>
<path d="M199.857 26.6704C196.934 26.6704 194.355 24.4053 191.756 24.4053C189.416 24.4053 187.076 24.4053 184.735 24.4053C179.546 24.4053 174.644 28.6343 171.594 32.5427C169.387 35.3705 166.552 38.0923 164.933 41.3931C162.901 45.5358 161.286 49.5566 160.433 54.2073C159.399 59.8436 159.562 66.3138 160.333 71.9711C160.649 74.2942 161.682 76.8484 162.493 79.0598C162.905 80.1814 163.853 81.2545 163.853 82.5413" stroke="#EFEADB" stroke-width="2" stroke-linecap="round"/>
<path d="M157.733 85.1838C156.51 82.6199 154.652 79.9267 154.153 77.0465C153.488 73.2114 153.052 69.6892 153.052 65.7423C153.052 61.1205 152.63 56.2641 153.953 51.7955C155.363 47.0314 157.406 43.1857 160.053 39.149C160.873 37.8982 162.064 36.7303 163.153 35.7305C164.438 34.5518 165.66 32.9929 167.014 31.9555C169.847 29.785 172.794 27.9922 175.655 25.9154C180.272 22.5637 186.353 20.2145 191.936 21.3853" stroke="#EFEADB" stroke-width="2" stroke-linecap="round"/>
<path d="M191.936 19.1203C186.716 19.1203 181.495 19.1203 176.275 19.1203C171.057 19.1203 166.254 21.13 161.713 23.6504C158.77 25.2841 156.439 27.7311 153.692 29.6066C151.931 30.809 150.88 32.7714 149.252 34.1367C142.331 39.9424 141.11 48.4239 138.491 56.6612C137.509 59.7487 138.291 64.2596 138.291 67.4411C138.291 69.9209 138.892 72.0413 139.371 74.425C139.801 76.5678 140.459 78.7854 141.251 80.6538C141.732 81.7888 142.393 85.0696 143.331 85.5614" stroke="#EFEADB" stroke-width="2" stroke-linecap="round"/>
<path d="M97.6069 153.89C97.6069 151.339 98.3482 149.161 99.1271 146.801C99.6432 145.238 101.038 143.317 101.207 141.81C101.429 139.833 102.647 138.206 102.647 136.147C102.647 134.423 103.007 132.673 103.007 130.862" stroke="#EFEADB" stroke-width="2" stroke-linecap="round"/>
<path d="M90.4062 152.757C90.4062 149.727 91.4453 145.741 92.6465 142.942C93.4283 141.12 93.5366 139.07 94.0866 137.196C94.6903 135.139 95.1024 132.815 95.8868 130.862C96.5067 129.318 97.4246 127.202 97.6069 125.577C97.9811 122.242 100.305 119.193 100.487 115.762C100.574 114.127 101.567 112.623 101.567 110.854C101.567 109.635 101.789 107.37 102.287 106.324" stroke="#EFEADB" stroke-width="2" stroke-linecap="round"/>
<path d="M104.088 88.959C104.088 86.9663 104.205 85.2709 104.988 83.4641C105.975 81.1871 106.137 78.7315 106.968 76.3335C108.776 71.1214 110.038 65.6765 112.369 60.646C113.144 58.9723 113.655 57.2296 114.369 55.5287C115.37 53.1432 117.243 51.0623 118.489 48.7755C119.759 46.4458 121.055 44.1094 122.65 41.9594C124.42 39.5733 126.627 37.3819 128.21 34.8917C130.103 31.914 132.934 28.6054 135.331 25.9993C137.66 23.4665 140.97 21.7546 143.872 20.0641C145.008 19.402 146.032 18.5543 147.132 17.82C148.41 16.9673 149.712 15.7554 151.052 14.9887C152.314 14.267 153.214 12.8181 154.413 11.9477C156.103 10.7208 157.683 9.73724 159.613 8.92763C161.896 7.97015 164.235 6.94497 166.374 5.82369C170.86 3.47185 175.401 2.93324 180.235 2.15349C184.482 1.46842 189.116 1 193.377 1" stroke="#EFEADB" stroke-width="2" stroke-linecap="round"/>
<path d="M196.256 2.13248C196.66 2.17945 198.659 3.01859 198.777 3.265" stroke="#EFEADB" stroke-width="2" stroke-linecap="round"/>
<path d="M200.937 3.26497C212.241 3.26497 224.42 0.995432 234.96 5.90751C237.793 7.22751 240.652 8.52419 243.421 9.97619C244.869 10.7353 245.934 10.5285 247.381 11.5701C249.53 13.1163 251.646 14.937 253.662 16.6664C255.701 18.4159 258.28 19.6119 260.183 21.3853C261.126 22.2646 262.113 23.0876 263.223 23.7342C264.376 24.4059 265.227 26.6704 266.643 26.6704C267.791 26.6704 268.789 29.4304 269.264 30.1937C270.305 31.8682 271.619 33.3545 272.764 34.9545C273.724 36.2962 274.834 37.7123 276.004 38.9393C278.657 41.7206 280.522 45.2246 282.665 48.4818C283.859 50.298 285.486 51.9339 286.905 53.5572C287.78 54.5574 288.401 56.4726 289.326 57.2484C290.816 58.4988 291.328 62.2087 292.106 64.0435C293.31 66.8839 295.115 69.2546 296.346 72.1599C296.855 73.3602 297.753 74.0976 298.326 75.1799C298.865 76.1966 299.283 77.4387 300.027 78.3048C301.209 79.6822 302.701 82.7407 303.207 84.5966C303.719 86.4754 305.347 87.9818 305.347 90.0914" stroke="#EFEADB" stroke-width="2" stroke-linecap="round"/>
<path d="M315.788 141.81C315.788 138.77 313.259 136.975 312.188 134.449C310.935 131.494 310.388 129.669 310.388 126.332C310.388 120.85 311.828 115.73 311.828 110.099" stroke="#EFEADB" stroke-width="2" stroke-linecap="round"/>
<path d="M305.347 140.677C305.347 137.841 302.467 135.408 302.467 132.75" stroke="#EFEADB" stroke-width="2" stroke-linecap="round"/>
<path d="M256.023 86.3164C256.023 82.8406 258.588 80.5589 259.983 77.6338C261.506 74.4404 262.434 70.5206 263.223 67.0636C264.285 62.4144 263.943 57.3327 263.943 52.5925C263.943 49.4795 263.02 45.4246 261.423 42.8193C260.344 41.0594 259.311 39.2753 258.103 37.6181C256.342 35.2033 253.776 33.6316 251.702 31.578C249.456 29.3533 246.316 28.2163 243.501 27.048C240.04 25.6116 236.073 22.1404 232.26 22.1404" stroke="#EFEADB" stroke-width="2" stroke-linecap="round"/>
<path d="M283.385 85.5615C280.943 85.0224 278.572 80.7746 277.585 78.5986C275.876 74.8331 274.622 72.0826 273.844 68.0074C272.891 63.0091 271.721 58.1219 270.784 53.0959C269.164 44.4011 264.276 37.5036 259.083 30.8021C258.108 29.5437 256.518 28.2587 255.303 27.2577C253.816 26.0327 251.919 24.4028 250.182 23.6505C245.634 21.6808 241.447 19.1216 236.581 17.9879C232.153 16.9562 227.833 15.5977 223.259 15.3453C220.312 15.1827 217.593 14.2128 214.619 14.2128" stroke="#EFEADB" stroke-width="2" stroke-linecap="round"/>
<path d="M232.26 82.9189C236.694 78.2699 240.877 73.7506 244.161 68.1542C247.873 61.8307 249.268 53.3058 247.922 45.9652C247.374 42.9776 246.321 40.1419 245.222 37.3245C244.66 35.8857 243.077 32.8568 241.901 31.9556C239.715 30.2805 237.639 26.4113 235.141 25.538" stroke="#EFEADB" stroke-width="2" stroke-linecap="round"/>
<path d="M192.296 54.9835C192.296 52.4423 193.598 50.8758 194.796 48.7546C195.869 46.8563 196.45 44.7047 197.337 42.7355C199.342 38.2835 199.857 33.3709 199.857 28.4951C199.857 19.9824 195.345 12.5018 189.776 6.66269" stroke="#EFEADB" stroke-width="2" stroke-linecap="round"/>
<path d="M125.69 79.5213C125.69 76.8508 125.69 74.1803 125.69 71.5098C125.69 70.0535 125.557 68.5121 125.71 67.0636C125.897 65.2972 127.064 63.7012 127.49 61.9882C129.447 54.122 133.61 47.0948 138.931 41.2673C141.442 38.5174 143.663 35.6898 146.572 33.3816C149.477 31.0763 152.796 29.7922 155.853 27.8029C158.967 25.776 162.387 24.1792 165.654 22.434C169.381 20.4432 173.366 20.4514 177.175 19.1203" stroke="#EFEADB" stroke-width="2" stroke-linecap="round"/>
<path d="M126.003 152.756C123.94 151.611 122.163 149.465 120.642 147.671C119.628 146.475 119.138 144.953 118.345 143.596C117.887 142.813 117.695 141.869 117.196 141.113C116.837 140.57 116.261 139.84 116.047 139.225C115.81 138.541 115.461 137.801 115.026 137.232C114.53 136.581 114.65 135.566 114.374 134.823C113.83 133.357 112.973 132.099 112.473 130.66C111.462 127.744 109.936 125.134 109.212 122.095C108.657 119.768 108.543 117.036 107.368 114.957C106.562 113.531 106.583 111.178 105.581 109.931C104.684 108.814 104.136 106.531 103.794 105.098C103.215 102.669 101.875 100.545 101.256 98.273C100.782 96.5349 99.71 94.3513 99.71 92.5332" stroke="#EFEADB" stroke-width="2" stroke-linecap="round"/>
<path d="M99.71 92.5332C101.466 92.5332 103 91.9491 104.674 91.4477C105.377 91.2368 106.043 91.1949 106.858 91.1949C107.787 91.1949 108.785 90.696 109.722 90.6596C111.817 90.5782 113.921 90.1243 116.047 90.1243C117.871 90.1243 119.459 89.6595 121.209 89.5889C123.028 89.5156 124.768 89.0536 126.641 89.0536C128.896 89.0536 131.151 89.0536 133.406 89.0536C138.303 89.0536 143.201 89.0536 148.098 89.0536C152.188 89.0536 156.426 89.3213 160.592 89.3213C162.592 89.3213 164.591 89.3213 166.591 89.3213C167.851 89.3213 169.057 89.5889 170.306 89.5889C171.154 89.5889 172.081 90.1243 172.845 90.1243C174.648 90.1243 176.445 90.6596 178.333 90.6596C179.925 90.6596 181.421 91.7302 183.056 91.7302C183.823 91.7302 184.298 92.1774 184.97 92.2655C185.308 92.3098 185.398 92.7591 185.736 92.8008C186.058 92.8405 186.716 92.9898 187.013 93.128C188.084 93.6272 190.02 93.7554 190.586 94.9421" stroke="#EFEADB" stroke-width="2" stroke-linecap="round"/>
<path d="M159.443 156.504C161.194 156.3 163.409 154.873 164.606 153.619C165.192 153.004 165.728 152.458 166.137 151.686C166.859 150.323 168.121 149.279 168.832 147.938C169.059 147.51 169.256 147.118 169.541 146.734C170.045 146.054 169.994 145.208 170.477 144.459C171.019 143.618 171.11 142.665 171.824 141.916C172.274 141.445 172.068 140.909 172.462 140.444C173.162 139.619 174.01 137.485 174.306 136.429C174.693 135.047 175.561 133.172 176.178 131.879C177.158 129.824 177.971 127.344 178.73 125.173C179.484 123.018 180.658 121.041 181.397 118.912C182.487 115.768 183.778 112.588 185.098 109.544C185.767 108.001 186.093 106.336 186.885 104.86C187.429 103.847 188.04 102.739 188.417 101.634C189.029 99.8349 189.567 97.8823 190.331 96.2804" stroke="#EFEADB" stroke-width="2" stroke-linecap="round"/>
<path d="M184.205 109.128C176.758 109.128 169.211 109.663 161.741 109.663C157.877 109.663 154.107 110.466 150.254 110.466C146.624 110.466 142.985 110.199 139.405 110.199C136.129 110.199 132.853 110.199 129.577 110.199C128.149 110.199 126.721 110.199 125.294 110.199C124.059 110.199 122.815 109.663 121.55 109.663C120.324 109.663 119.187 109.128 117.962 109.128C116.251 109.128 114.528 108.86 112.785 108.86C110.905 108.86 108.851 108.593 107.113 108.593" stroke="#EFEADB" stroke-width="2" stroke-linecap="round"/>
<path d="M179.61 242.154C178.531 242.154 177.097 242.961 176.036 243.359C175.106 243.707 173.563 244.295 172.59 244.295C169.87 244.295 167.148 245.098 164.35 245.098C157.62 245.098 150.993 245.901 144.255 245.901C140.383 245.901 136.511 245.901 132.64 245.901C129.993 245.901 126.927 246.382 124.329 245.886C122.98 245.629 121.611 245.236 120.33 244.771C119.496 244.468 118.39 243.866 117.579 243.76C116.115 243.568 114.218 242.481 112.984 241.619" stroke="#EFEADB" stroke-width="2" stroke-linecap="round"/>
<path d="M112.984 241.619C112.984 240.931 114.067 239.874 114.459 239.418C114.74 239.09 114.86 238.691 115.225 238.348C115.534 238.056 116.059 237.789 116.302 237.47C117.432 235.989 120.073 234.631 121.663 233.797C123.597 232.784 126.519 231.716 128.683 231.716C130.94 231.716 133.01 230.377 135.192 230.377" stroke="#EFEADB" stroke-width="2" stroke-linecap="round"/>
<path d="M179.355 241.084C179.694 241.044 181.739 239.466 181.34 239.002C180.92 238.512 180.081 238.338 179.61 237.872C179.156 237.422 178.607 236.633 178.078 236.325C176.987 235.689 175.642 234.971 174.703 234.184C174.384 233.916 173.404 233.998 172.973 233.797C172.316 233.491 171.743 233.24 171.073 233.039C169.894 232.686 168.706 232.015 167.485 231.73C166.172 231.425 165.032 230.377 163.67 230.377C161.422 230.377 158.961 229.307 156.636 229.307" stroke="#EFEADB" stroke-width="2" stroke-linecap="round"/>
<path d="M137.745 233.321C137.745 232.748 137.284 231.926 136.979 231.448" stroke="#EFEADB" stroke-width="2" stroke-linecap="round"/>
<path d="M136.979 231.448C136.979 229.65 137.578 228.027 139.277 227.433" stroke="#EFEADB" stroke-width="2" stroke-linecap="round"/>
<path d="M153.827 233.322C153.972 231.953 154.848 231.107 154.848 229.574C154.848 228.424 153.788 227.412 152.806 226.898" stroke="#EFEADB" stroke-width="2" stroke-linecap="round"/>
<path d="M140.042 226.63C140.042 215.926 140.298 205.168 140.298 194.511" stroke="#EFEADB" stroke-width="2" stroke-linecap="round"/>
<path d="M151.53 227.433C151.53 221.445 152.04 215.517 152.04 209.5C152.04 207.072 151.53 204.707 151.53 202.273C151.53 200.31 151.53 198.348 151.53 196.385" stroke="#EFEADB" stroke-width="2" stroke-linecap="round"/>
<path d="M140.809 231.716C142.51 231.716 144.212 231.716 145.914 231.716C147.081 231.716 148.133 231.18 149.233 231.18" stroke="#EFEADB" stroke-width="2" stroke-linecap="round"/>
<path d="M203.932 96.9766C204.054 98.1292 204.992 99.3266 205.491 100.373C206.178 101.813 206.866 103.772 207.846 105.028C208.902 106.382 209.961 109.338 210.141 111.13C210.221 111.927 210.909 112.694 211.161 113.457C211.549 114.635 212.032 115.944 212.705 116.964C213.87 118.727 214.43 120.551 215.81 122.169C217.299 123.914 218.111 126.141 219.469 127.972C221.991 131.371 224.666 134.568 227.538 137.58C228.157 138.229 228.752 138.999 229.443 139.562C230.092 140.091 230.395 141.142 231.063 141.842C232.042 142.869 232.819 143.988 233.957 144.814C235.643 146.038 236.91 147.676 238.622 148.919C239.999 149.918 241.404 150.917 242.536 152.174C243.45 153.188 244.409 154.346 245.236 155.429C245.921 156.327 247.323 156.743 247.396 158.118C247.534 160.73 247.396 163.513 247.396 166.044" stroke="#EFEADB" stroke-width="2" stroke-linecap="round"/>
<path d="M247.396 166.044C248.803 166.208 249.727 167.176 251.175 167.176" stroke="#EFEADB" stroke-width="2" stroke-linecap="round"/>
<path d="M237.677 192.652C236.013 192.652 234.567 191.803 232.952 191.803C231.569 191.803 230.229 191.709 228.918 192.101C228.042 192.364 226.79 193.961 226.068 194.633C225.006 195.624 224.179 196.465 224.179 198.03C224.179 199.464 224.174 200.767 224.464 202.134C224.648 203.004 225.959 204.656 226.743 204.839C227.178 204.94 227.626 205.512 228.108 205.657C228.723 205.841 229.138 205.956 229.848 205.956C231.418 205.956 232.191 205.609 233.627 205.107" stroke="#EFEADB" stroke-width="2" stroke-linecap="round"/>
<path d="M233.627 205.107C233.627 208.157 239.863 208.164 240.916 205.956" stroke="#EFEADB" stroke-width="2" stroke-linecap="round"/>
<path d="M240.917 205.956C241.472 206.029 242.241 206.909 242.941 207.072C243.69 207.247 244.273 207.371 245.101 207.371C246.266 207.371 248.981 207.16 249.555 205.956" stroke="#EFEADB" stroke-width="2" stroke-linecap="round"/>
<path d="M249.825 205.956C251.257 205.956 252.716 206.044 254.145 205.956C254.814 205.915 254.782 205.623 255.494 206.019C256.035 206.319 256.504 206.522 257.114 206.522C258.734 206.522 260.354 206.522 261.973 206.522C263.437 206.522 264.455 205.56 265.753 205.107" stroke="#EFEADB" stroke-width="2" stroke-linecap="round"/>
<path d="M265.753 205.107C266.927 205.107 267.604 206.064 268.588 206.522C269.686 207.034 270.737 207.371 271.962 207.371C273.634 207.371 276.788 207.157 277.631 205.39" stroke="#EFEADB" stroke-width="2" stroke-linecap="round"/>
<path d="M277.631 205.39C279.828 205.39 282.566 206.31 284.65 205.327C285.782 204.793 286.528 204.498 287.14 203.408C287.669 202.466 287.993 201.493 288.43 200.578" stroke="#EFEADB" stroke-width="2" stroke-linecap="round"/>
<path d="M287.35 205.673C288.74 205.673 289.706 205.711 290.859 205.107" stroke="#EFEADB" stroke-width="2" stroke-linecap="round"/>
<path d="M295.719 196.898C295.719 192.729 289.094 191.171 286.27 192.652" stroke="#EFEADB" stroke-width="2" stroke-linecap="round"/>
<path d="M288.969 192.086C287.957 191.461 287.502 189.981 286.675 189.113C285.883 188.283 285.192 187.502 284.32 186.77C283.777 186.315 282.941 186.066 282.355 185.575C281.756 185.072 281.359 184.425 280.601 184.16" stroke="#EFEADB" stroke-width="2" stroke-linecap="round"/>
<path d="M238.217 192.369C238.413 190.516 241.112 189.202 241.726 187.431C242.413 185.452 244.135 184.204 244.966 182.462" stroke="#EFEADB" stroke-width="2" stroke-linecap="round"/>
<path d="M249.825 194.35C249.825 192.522 250.962 191.639 251.655 190.104C251.954 189.442 251.909 187.879 252.525 187.557" stroke="#EFEADB" stroke-width="2" stroke-linecap="round"/>
<path d="M259.273 194.35C259.273 191.672 259.543 189.036 259.543 186.424" stroke="#EFEADB" stroke-width="2" stroke-linecap="round"/>
<path d="M274.391 193.784C273.576 193.689 273.04 192.279 272.442 191.803C271.843 191.326 271.304 190.728 270.822 190.167C269.944 189.145 268.992 187.507 268.992 186.141" stroke="#EFEADB" stroke-width="2" stroke-linecap="round"/>
<path d="M281.41 191.803C280.343 191.663 278.171 188.272 278.171 187.274" stroke="#EFEADB" stroke-width="2" stroke-linecap="round"/>
<path d="M288.43 144.248C289.533 142.063 291.589 140.101 293.289 138.445C294.827 136.948 296.111 134.878 297.068 132.926C298.08 130.863 299.418 129.171 300.728 127.406C302.086 125.575 303.206 123.137 304.192 121.068C304.819 119.754 305.393 118.334 306.127 117.074C306.944 115.672 308.156 114.287 308.737 112.765C309.226 111.483 310.261 110.354 310.777 109.023C311.549 107.025 312.483 105.16 313.401 103.236C314.281 101.39 315.1 98.8905 316.296 97.3227C317.053 96.3307 318.126 94.3662 318.126 93.0138" stroke="#EFEADB" stroke-width="2" stroke-linecap="round"/>
<path d="M204.091 96.5407C204.558 96.5407 204.942 96.2904 205.389 96.2384C205.961 96.1717 206.791 96.0797 207.335 95.8605C208.245 95.4935 209.655 95.6338 210.61 95.6338C211.791 95.6338 212.935 95.1826 214.11 95.0376C215.496 94.8667 216.838 94.4575 218.251 94.4246C219.112 94.4045 219.94 94.1223 220.813 94.1223C221.653 94.1223 222.444 94.0403 223.272 93.8955C224.572 93.6683 226.128 93.6688 227.445 93.6688C228.464 93.6688 229.463 93.7108 230.472 93.8284C232.829 94.103 235.24 94.1223 237.624 94.1223C241.804 94.1223 245.95 93.0642 250.149 93.0642C251.566 93.0642 252.985 93.0846 254.402 93.0642C256.445 93.0349 258.462 92.6108 260.512 92.6108C261.5 92.6108 262.361 92.3889 263.371 92.5772C264.186 92.729 265.117 92.6108 265.942 92.6108C268.326 92.6108 270.71 92.6108 273.094 92.6108C275.282 92.6108 277.509 92.7411 279.693 92.6024C280.793 92.5324 281.84 92.3085 282.945 92.3085C288.312 92.3085 293.731 92.4596 299.122 92.4596C300.425 92.4596 301.84 92.2983 303.134 92.468C304.312 92.6223 305.528 92.5052 306.698 92.7283C307.406 92.8633 308.323 92.9131 309.037 92.9131C309.672 92.9131 310.265 93.0642 310.911 93.0642C312.101 93.0642 313.292 93.0642 314.483 93.0642C315.402 93.0642 316.174 93.3665 317.109 93.3665" stroke="#EFEADB" stroke-width="2" stroke-linecap="round"/>
<path d="M223.264 118.004C232.238 118.004 241.216 117.702 250.205 117.702C255.218 117.702 260.206 117.818 265.181 118.34C267.804 118.615 270.502 118.76 273.142 118.76" stroke="#EFEADB" stroke-width="2" stroke-linecap="round"/>
<path d="M273.142 118.76C280.41 118.76 287.755 118.911 295.053 118.911C297.305 118.911 299.435 118.061 301.612 117.71C302.141 117.625 303.405 117.407 303.815 117.064C304.076 116.844 304.954 116.493 305.288 116.493" stroke="#EFEADB" stroke-width="2" stroke-linecap="round"/>
<path d="M221.246 118.004C220.166 118.004 219.423 117.597 218.507 117.064C218.14 116.85 217.802 116.505 217.466 116.274C216.883 115.875 216.269 115.339 215.776 114.822C215.21 114.228 214.873 113.401 214.334 112.789C213.813 112.197 213.085 111.278 212.669 110.598C212.291 109.982 211.749 109.551 211.371 108.935C211 108.33 210.664 107.71 210.29 107.121" stroke="#EFEADB" stroke-width="2" stroke-linecap="round"/>
<path d="M223.528 129.353C225.223 129.156 227.785 128.215 229.285 127.341C231.408 126.105 234.078 126.144 236.416 125.677C238.828 125.195 241.816 124.882 244.21 124.882C246.297 124.882 248.423 124.435 250.394 124.435" stroke="#EFEADB" stroke-width="2" stroke-linecap="round"/>
<path d="M252.1 128.012C255.711 128.012 259.323 128.172 262.808 127.341C266.256 126.52 270.294 126.671 273.848 126.671C274.973 126.671 279.381 126.694 279.818 125.776" stroke="#EFEADB" stroke-width="2" stroke-linecap="round"/>
<path d="M137.386 131.589C141.524 131.589 145.587 131.142 149.753 131.142" stroke="#EFEADB" stroke-width="2" stroke-linecap="round"/>
<path d="M236.706 200.828C235.101 200.618 237.325 196.471 238.064 196.084" stroke="#EFEADB" stroke-width="2" stroke-linecap="round"/>
<path d="M242.136 193.238C243.698 192.37 245.873 190.619 246.66 188.968" stroke="#EFEADB" stroke-width="2" stroke-linecap="round"/>
<path d="M267.021 195.61C267.021 194.737 266.568 194.11 266.568 193.238" stroke="#EFEADB" stroke-width="2" stroke-linecap="round"/>
</svg>
